<svg data-bbox="17 11 10.017 22.019" viewBox="0 0 44 44" xmlns="http://www.w3.org/2000/svg" data-type="color">
  <path
    d="M24.9 31c-.4 0-.9-.1-1.3-.3-.3-.3-.4-.7-.4-1.1 0-.3.1-.7.1-1 .1-.4.2-.8.3-1.1l1.2-4.1c.1-.4.2-.8.2-1.2 0-.5.1-.8.1-.9 0-.8-.3-1.6-.9-2.1-.8-.6-1.7-.9-2.6-.8-.7 0-1.4.1-2 .3-.7.2-1.4.5-2.2.8l-.4 1.3c.2-.1.5-.2.8-.3.3-.1.6-.1.9-.1.4 0 .9.1 1.3.3.3.3.4.7.3 1.1 0 .3 0 .7-.1 1-.1.4-.2.7-.3 1.1L18.8 28c-.1.4-.2.8-.2 1.1 0 .3-.1.7-.1 1 0 .8.4 1.6 1 2.1.8.6 1.7.9 2.7.8.7 0 1.4-.1 2-.3.6-.2 1.3-.5 2.3-.8l.3-1.3c-.3.1-.5.2-.8.3-.4.1-.7.1-1.1.1zm-.7-20c-.7 0-1.5.3-2 .8-1 .9-1.1 2.4-.2 3.4l.2.2c1.1 1 2.9 1 4 0 1-.9 1.1-2.4.2-3.4l-.2-.2c-.6-.5-1.3-.8-2-.8z"
    fill="#fff" data-color="1" />
</svg>